<svg width="1024" height="575" viewBox="0 0 1024 575" fill="none" xmlns="http://www.w3.org/2000/svg">
<g clip-path="url(#clip0_78_137)">
<mask id="path-1-inside-1_78_137" fill="white">
<path d="M0 32C0 14.3269 14.3269 0 32 0H992C1009.67 0 1024 14.3269 1024 32V543C1024 560.673 1009.67 575 992 575H32C14.3269 575 0 560.673 0 543V32Z"/>
</mask>
<path d="M0 32C0 14.3269 14.3269 0 32 0H992C1009.67 0 1024 14.3269 1024 32V543C1024 560.673 1009.67 575 992 575H32C14.3269 575 0 560.673 0 543V32Z" fill="#0F172A"/>
<path d="M-4 32C-4 12.1177 12.1177 -4 32 -4H988C1007.88 -4 1024 12.1177 1024 32C1024 16.536 1009.67 4 992 4H32C16.536 4 4 16.536 4 32H-4ZM1024 575H0H1024ZM32 575C12.1177 575 -4 558.882 -4 539V32C-4 12.1177 12.1177 -4 32 -4V4C16.536 4 4 16.536 4 32V543C4 560.673 16.536 575 32 575ZM1024 0V575V0Z" fill="url(#paint0_radial_78_137)" fill-opacity="0.4" mask="url(#path-1-inside-1_78_137)"/>
<rect width="1024" height="575" rx="32" fill="url(#paint1_linear_78_137)" fill-opacity="0.2"/>
<rect opacity="0.3" x="128" y="437" width="242.667" height="100" rx="24" fill="url(#paint2_linear_78_137)"/>
<rect opacity="0.3" x="390.667" y="437" width="242.667" height="100" rx="24" fill="url(#paint3_linear_78_137)"/>
<rect opacity="0.3" x="653.333" y="437" width="242.667" height="100" rx="24" fill="url(#paint4_linear_78_137)"/>
<rect opacity="0.3" x="128" y="317" width="242.667" height="100" rx="24" fill="url(#paint5_linear_78_137)"/>
<rect opacity="0.3" x="390.667" y="317" width="242.667" height="100" rx="24" fill="url(#paint6_linear_78_137)"/>
<rect opacity="0.3" x="653.333" y="317" width="242.667" height="100" rx="24" fill="url(#paint7_linear_78_137)"/>
<rect opacity="0.3" x="128" y="95" width="314" height="158" rx="12" fill="#94A3B8"/>
<rect opacity="0.3" x="551.5" y="110" width="295" height="14" rx="7" fill="#94A3B8"/>
<rect opacity="0.3" x="551.5" y="148" width="194" height="14" rx="7" fill="#94A3B8"/>
<rect opacity="0.3" x="551.5" y="186" width="140" height="14" rx="7" fill="#94A3B8"/>
<rect opacity="0.3" x="551.5" y="224" width="233" height="14" rx="7" fill="#94A3B8"/>
<rect opacity="0.3" x="128" y="30" width="60" height="14" rx="7" fill="#94A3B8"/>
<rect opacity="0.3" x="220" y="30" width="60" height="14" rx="7" fill="#94A3B8"/>
<rect opacity="0.3" x="312" y="30" width="60" height="14" rx="7" fill="#94A3B8"/>
</g>
<defs>
<radialGradient id="paint0_radial_78_137" cx="0" cy="0" r="1" gradientUnits="userSpaceOnUse" gradientTransform="translate(-69 -134.5) rotate(55.8456) scale(633.211 1127.67)">
<stop stop-color="#E2E8F0"/>
<stop offset="1" stop-color="#E2E8F0" stop-opacity="0"/>
</radialGradient>
<linearGradient id="paint1_linear_78_137" x1="655" y1="4.09981e-06" x2="606.843" y2="486.695" gradientUnits="userSpaceOnUse">
<stop offset="0.00299651" stop-color="white"/>
<stop offset="1" stop-color="#999999" stop-opacity="0"/>
</linearGradient>
<linearGradient id="paint2_linear_78_137" x1="219.948" y1="423.992" x2="239.049" y2="538.712" gradientUnits="userSpaceOnUse">
<stop stop-color="#4B5563"/>
<stop offset="1" stop-color="#374151" stop-opacity="0"/>
</linearGradient>
<linearGradient id="paint3_linear_78_137" x1="482.614" y1="423.992" x2="501.715" y2="538.712" gradientUnits="userSpaceOnUse">
<stop stop-color="#4B5563"/>
<stop offset="1" stop-color="#374151" stop-opacity="0"/>
</linearGradient>
<linearGradient id="paint4_linear_78_137" x1="745.281" y1="423.992" x2="764.382" y2="538.712" gradientUnits="userSpaceOnUse">
<stop stop-color="#4B5563"/>
<stop offset="1" stop-color="#374151" stop-opacity="0"/>
</linearGradient>
<linearGradient id="paint5_linear_78_137" x1="219.948" y1="303.992" x2="239.049" y2="418.712" gradientUnits="userSpaceOnUse">
<stop stop-color="#4B5563"/>
<stop offset="1" stop-color="#374151" stop-opacity="0"/>
</linearGradient>
<linearGradient id="paint6_linear_78_137" x1="482.614" y1="303.992" x2="501.715" y2="418.712" gradientUnits="userSpaceOnUse">
<stop stop-color="#4B5563"/>
<stop offset="1" stop-color="#374151" stop-opacity="0"/>
</linearGradient>
<linearGradient id="paint7_linear_78_137" x1="745.281" y1="303.992" x2="764.382" y2="418.712" gradientUnits="userSpaceOnUse">
<stop stop-color="#4B5563"/>
<stop offset="1" stop-color="#374151" stop-opacity="0"/>
</linearGradient>
<clipPath id="clip0_78_137">
<rect width="1024" height="575" fill="white"/>
</clipPath>
</defs>
</svg>
